<?xml version="1.0"?><svg version="1.2" baseProfile="tiny-ps" viewBox="0 0 134 134" xmlns="http://www.w3.org/2000/svg" xmlns:xlink="http://www.w3.org/1999/xlink"><title>SVG_Widzees</title><g><g fill="#fff" transform="matrix(.1 0 0 -.1 0 134)"><path d="M0 670V0h1340v1340H0V670z"/></g><g fill="#faced6" transform="matrix(.1 0 0 -.1 0 134)"><path d="M80 735v-16l-17-6c-10-4-26-16-35-28l-17-20-1-32v-32l22-21 22-20h56v39l-20 6-20 6v54l19 12 19 12 6-14c3-8 8-59 12-114l7-99 20-6 21-5 13 11c7 6 13 16 13 23 0 13 46 104 61 120l9 9V475l9-14 9-13 21 7 21 6v51l30 38 30 38v51l24 25c13 15 30 26 37 26 8 0 23 7 33 15l20 15h-24v30h-79l-7-35-6-35-16-9c-9-5-22-24-28-43l-12-33-1 63-1 62h-10c-5 0-10 7-10 15v15h-40v-10c0-5-11-25-23-44-13-19-30-55-37-80s-17-46-21-46h-9v129l-15 15c-8 8-15 19-15 25v11H80v-15zm620-5v-20h-19l-7-50-7-50h-8c-5 0-9 5-9 10v10h-50v-9c0-5-9-12-19-16l-20-6-6-29-6-28 7-37 6-36 72 3 71 3 3 23 3 22h-20c-26 0-26 0 4 66 14 30 25 61 25 69 0 7 5 17 10 20l10 6v69h-40v-20zm-60-168c0-21-18-42-37-42h-13v14c0 16 26 46 41 46 5 0 9-8 9-18zM504 665c-3-8-3-18 0-23l5-9-34-39c-35-39-43-62-36-102l4-23 46 3 46 3 3 23 3 22h-40l5 18c3 9 11 28 17 41l12 24-12 4c-19 7-15 20 7 26l20 5v30l-21 5-20 5-5-13zm726-23c0-10-6-30-12-45l-13-27h-25v-28l22-5 22-6 8 12 8 12v-35l-92 2-93 1 39 4 40 4 13 17c17 23 16 27-11 56l-23 26h-32l-36-35-35-36v-39l-47 1-48 2 39 6 39 6 8 22 8 23-23 25c-13 14-28 25-35 25-16 0-51-32-51-47 0-7-4-13-10-13h-10v-60h20v-40h110v20c0 11 4 20 9 20s11-9 14-20l5-20h121l4 23 4 22 2-22 1-23h92l5 20c3 11 9 20 14 20h9v50l-20 12-20 13v75h-20v-18zm-478-32-13-21 6-9c4-6 14-10 23-10l17-1-32-29-33-30v-40h138l4 25 5 25h-76l25 25c14 14 29 25 34 25s12 5 15 11l7 11-21 19-20 19h-66l-13-20zM287 341c-3-15-4-37-1-48l6-20 58-1 59-1 4 27 4 27 2-27 1-28h40v9c0 5-6 12-12 14l-13 5 13 1c7 1 15-6 18-14 4-8 12-15 20-15h14v30h-14c-8 0-17 3-19 8l-5 7h48v-45h40v60h-19l-4-27-4-28-2 26-1 25-85 3-85 2-10-26c-5-14-14-25-20-25h-10v90h-9c-5 0-11-13-14-29zm93-47c0-8-4-14-10-14h-10v41l10-6c6-3 10-13 10-21zm183 26v-55l4 28c2 15 2 39 0 55l-4 27v-55zm17 0v-50h27l-5 25-4 25h22v-50h39l4 23 4 22 2-22 1-23h50v-40h20v41l-22 9c-13 5-18 9-11 9 7 1 17 10 23 20l10 20-49-1h-50l-4-26-4-27-2 28-1 27h-30v40h-20v-50zm140-10c0-5-5-10-11-10h-10l6 10c3 6 8 10 11 10 2 0 4-4 4-10zm60 28v-27l11-6 10-7-5-14-5-14h8c5 0 11 6 14 13l4 12-18 35-19 35v-27zm50-38v-30h50v18l-20-5-20-5v42h9c5 0 11-6 14-12l4-13 8 7 7 7-7 10c-3 6-15 11-26 11h-19v-30zm59-2 5-33 4 23 3 22h14c8 0 19-8 24-17l10-18 1 23v22h20v-50h20v60H883l6-32zm118 25c-4-3-7-16-7-28v-22h110v19l-25-4-25-5v17h51l5-15 6-15 10 6 9 6-18 21-18 20 13-7 12-7v10c0 14-27 14-35 1l-7-11-15 12-15 13-9-15c-5-8-9-17-9-21 0-12-30-9-30 2 0 6 7 10 16 10h15l-6 10c-7 12-19 13-28 3zm-327-83c0-5 5-10 10-10 6 0 10 5 10 10 0 6-4 10-10 10-5 0-10-4-10-10z"/></g><g fill="#fbb49d" transform="matrix(.1 0 0 -.1 0 134)"><path d="M80 734v-16l-20-5-19-5-6-19c-4-10-11-19-16-19h-9v-69l22-21 22-20h56v39l-20 6-20 6v54l19 12 19 12 7-17c4-9 9-61 12-114l6-96 20-6 21-5 13 11c7 6 13 16 13 22s16 42 35 80l35 70V475l9-14 9-13 21 7 21 6v55l30 34 29 35 1 27v27l24 25c13 15 30 26 37 26 8 0 23 7 33 15l20 15h-24v30h-79l-7-35-6-35-16-9c-9-5-22-24-28-43l-12-33-1 63-1 62h-10c-5 0-10 7-10 15v15h-40v-10c0-5-11-25-23-44-13-19-30-55-37-80s-17-46-21-46h-9v129l-15 15c-8 8-15 19-15 25v11H80v-16zm630 1v-16l-15-5-15-6-6-49-7-49h-13c-8 0-14 5-14 10v10h-40v-9c0-5-9-12-19-16l-20-6-6-29-6-28 6-36 7-36 72 3 71 2 3 23 3 22h-20c-26 0-26 0 4 66 14 30 25 61 25 69 0 7 5 17 10 20l10 6v69h-30v-15zm-70-173c0-21-18-42-37-42h-13v14c0 16 26 46 41 46 5 0 9-8 9-18zm-137 89 5-20-34-38-34-38v-86l48 3 47 3 3 23 3 22h-40l5 18c3 9 11 27 17 40l11 23-14 10-15 11 13 5c7 2 17 13 22 24l11 19h-53l5-19zm727-9c0-10-6-30-12-45l-13-27h-25v-28l22-5 22-6 8 12 8 12v-35l-92 2-93 1 41 4 41 4 11 24 11 25-23 25-23 25h-32l-36-35-35-36v-39l-47 1-48 2 40 6 40 6 3 29 4 28-21 19c-11 10-25 19-30 19-16 0-51-33-51-47 0-7-4-13-10-13h-10v-60h20v-40h110v20c0 11 4 20 9 20s11-9 14-20l5-20h121l4 23 4 22 2-22 1-23h38c20 0 42 4 47 8 15 10 35 49 35 67v15l-20 12-20 13v75h-20v-18zm-478-32-13-21 6-9c4-6 14-10 23-10l17-1-32-29-33-30v-40h138l4 25 5 25h-76l25 25c14 14 29 25 34 25s12 5 15 11l7 11-21 19-20 19h-66l-13-20zM287 343l-5-27 9-23 8-22 31 2 30 2v46l11-7 11-6-5-19-5-19h37l4 28 4 27 2-27 1-28h40v9c0 5-6 12-12 14l-13 5 13 1c7 1 15-6 18-14 4-8 12-15 20-15h14v30h-14c-8 0-17 3-19 8l-5 7h48v-45h40v60h-19l-4-27-4-28-2 25-1 25-85 3-85 2-10-25c-5-14-14-25-20-25h-10v90h-9c-5 0-11-12-14-27zm293-23v-50h27l-5 25-4 25h22v-50h39l4 23 4 22 2-22 1-23h50v-40h20v39l-19 6-20 6 22 22 22 22-18 3-18 4-14-12-13-11-7 11c-3 5-12 10-20 10h-14l-4-27-4-28-2 28-1 27h-30v40h-20v-50zm140-10c0-5-4-10-10-10-5 0-10 5-10 10 0 6 5 10 10 10 6 0 10-4 10-10zm60 23c0-12 5-25 11-28l10-7-5-14-5-14h19v23c0 12-7 31-15 41l-15 20v-21zm50-33v-30h50v18l-20-5-20-5v42h9c5 0 11-6 14-12l4-13 8 7 7 7-7 10c-3 6-15 11-26 11h-19v-30zm59-2 5-33 4 23c2 12 8 22 13 22s9 5 9 10v10h-37l6-32zm41 20c0-7 5-20 10-28l10-15v45h20v-50h20v60h-60v-12zm77 5c-4-3-7-17-7-30v-23h14c8 0 18 5 21 10l6 10h-15c-9 0-16 5-16 10 0 6 7 10 16 10h15l-6 10c-7 12-19 13-28 3zm39-8c-3-8-3-21 0-29l6-15 29 1 29 1v19l-25-4-25-5v17h49l10-17 10-18-1 33c-1 36-2 36-28 22l-19-10-6 10c-9 15-22 12-29-5zm-366-75c0-5 5-10 10-10 6 0 10 5 10 10 0 6-4 10-10 10-5 0-10-4-10-10z"/></g><g fill="#f78364" transform="matrix(.1 0 0 -.1 0 134)"><path d="M90 735v-15l-25-6-24-6-6-19c-4-10-11-19-16-19h-9v-69l22-21 22-20h56v39l-20 6-20 6v50l14 15c20 19 23 18 35-17l11-32V462l22-5 22-6 13 11c7 6 13 16 13 22s16 42 35 80l35 70V475l9-14 9-13 21 7 21 6v55l30 34 29 35 1 37v37l20 6c11 3 20 11 20 16s8 9 18 9c9 0 26 7 36 15l20 15h-24v30h-80l-6-39-6-40-16-3-15-3-13-35-12-35-1 63-1 62h-10c-5 0-10 7-10 15v15h-40v-10c0-5-11-25-23-44-13-19-30-55-37-80s-17-46-21-46h-9v53c0 28-3 62-6 75l-6 22h-38v30H90v-15zm616-2c-3-10-13-29-21-43s-15-37-15-52v-28h-15c-8 0-15 5-15 10 0 31-55-4-80-50l-12-21 7-40 7-39 71 3 72 2 3 23 3 22h-42l6 23c4 12 11 26 16 32 5 5 9 17 9 27 0 9 9 33 20 53l20 36v59h-28l-6-17zm-68-180-3-28-22-3-23-3v15c0 17 26 46 41 46h10l-3-27zM502 653c2-9 8-18 15-20l12-4 11 20 11 21h-52l3-17zm728-11c0-10-6-30-12-45l-13-27h-12c-19 0-16-18 5-29l19-10 11 11 12 12v-34l-92 2-93 1 40 4 40 4 7 12 8 12-5 24c-7 29-28 51-49 51h-15l-36-35-35-36v-39l-47 1-48 2 40 6 40 6 3 29 4 28-21 19c-22 21-41 25-41 9 0-5-7-10-16-10h-16l-5-20c-3-11-9-20-14-20h-9v-60h20v-40h102l5 20c6 23 23 27 23 6 0-19 22-26 80-26h49l4 23 4 22 2-22 1-23h38c20 0 42 4 47 8 15 10 35 49 35 67v15l-20 12-20 13v75h-20v-18zm-125-72c-3-5-14-10-23-10h-17l15 10c8 5 19 10 23 10h8l-6-10zm-349 40-18-19 7-10c3-6 14-11 23-11l17-1-32-29-33-30v-40h54c30 0 61 3 70 6l16 6v38h-69l23 24c13 12 31 26 40 29 22 9 20 28-4 34-11 3-20 9-20 14v9l-27-1h-28l-19-19zm-288-25c-6-14-15-25-20-25h-8v-91l48 3 47 3 3 23 3 22h-38l5 25c2 14 8 28 13 31s9 12 9 20v14h-50l-12-25zM292 323l3-48h33l32-1v46h22l-4-25-5-25h37v51l11-7 11-6-5-19-5-19h19c21 0 26 16 7 23l-13 5 13 1c7 1 15-6 18-14 4-8 12-15 20-15h14v30h-14c-8 0-17 4-20 9l-6 9 22-5 23-5-14 10-13 9-64 2-64 1-10-25c-5-14-14-25-20-25h-10v90h-21l3-47zm288-3v-50h25l-2 32c-1 18-2 41-2 51-1 9-5 17-11 17h-10v-50zm201 19c0-9 6-30 14-45l15-29v55h-9c-5 0-12 8-14 18l-5 17-1-16zm-270-36-1-33h40v60h-20l-1-27-1-28-8 30-8 30-1-32zm110 0-1-33h39l4 23 4 22 2-25 2-25 9 20 9 20v-17l1-18h30v-40h20v39l-21 6-20 7 18 14 18 14-17-6-18-6v22l23 1 22 1-18 5-18 5-12-11-13-10-14 9c-23 15-28 12-22-15l4-25h-21l-4 28-4 27-2-32zm209-4v-29h50v18l-20-5-20-5v42h9c5 0 12-6 14-12l5-13 10 13 9 13 16-7 17-6v20h-90v-29zm100 17c0-8 4-17 9-20l9-6 5 20 5 20h-28v-14zm40-16v-30h20v60h-20v-30zm37 23c-4-3-7-17-7-30v-23h15c8 0 15 5 15 10 0 6-4 10-10 10-5 0-10 5-10 10 0 6 7 10 16 10h15l-6 10c-7 12-19 13-28 3zm39-8c-3-8-3-21 0-29l6-15 29 1 29 1v19l-25-4-25-5v25l23-5c12-3 28-13 35-22l13-16-5 30c-2 17-5 31-5 33-1 1-10-2-20-8l-20-10-6 10c-9 15-22 12-29-5zm-366-75c0-5 5-10 10-10 6 0 10 5 10 10 0 6-4 10-10 10-5 0-10-4-10-10z"/></g><g fill="#f35759" transform="matrix(.1 0 0 -.1 0 134)"><path d="M90 735v-15l-25-6-24-6-6-19c-4-10-11-19-16-19h-9v-32c0-18 4-38 8-44 11-16 48-34 71-34h21v38l-20 5-20 5v53l16 16 15 15 14-18 14-19 1-90v-90l21-13 21-13 14 12 14 11v23c0 13 4 25 9 27 4 2 20 28 34 58l27 55V475l9-13 8-14 22 13 21 14v18c0 20 28 68 47 80l13 8v78l20 6c11 3 20 10 20 15 0 4 11 11 25 14l25 6v50h-70v-15c0-8-4-15-10-15h-10v-49l-19-6-18-5-11-33-10-32-1 58-1 57h-20v40h-40v-10c0-5-11-25-23-44-13-19-30-55-37-80s-17-46-21-46h-9v53c0 28-3 62-6 75l-6 22h-38v30H90v-15zm616-2c-3-10-13-29-21-43s-15-37-15-52v-28h-15c-8 0-15 5-15 10 0 31-55-4-80-50l-12-21 7-39 7-39h136l5 25 4 24h-38l6 23c4 12 11 26 16 32 5 5 9 16 9 25s9 35 20 58c11 22 20 53 20 67v25h-28l-6-17zm-68-180-3-28-27-3-28-3v10c0 6 9 20 20 31s25 20 31 20h10l-3-27zM502 653c2-9 8-18 15-20l12-4 11 20 11 21h-52l3-17zm728-11c0-10-6-30-12-45l-13-27h-27l5-12 4-13 24-1c13 0 25-4 27-10l2-9-35-3-35-3v-49h38c42 0 52 6 70 37 17 32 15 46-8 63l-20 14v76h-20v-18zm-290-21c0-5-9-13-20-16l-20-6v-15c0-8-4-14-10-14h-10v-60h20v-40h102l5 20 5 20h26l5-21 5-20 54 3 53 3 3 23 3 22-53 2-53 1 40 4 40 4 7 12 8 12-5 24c-7 26-28 51-45 51-11 0-16-3-62-45l-28-24v-41l-47 1-48 2 40 6 40 6 3 29 4 28-21 19c-22 20-41 25-41 10zm170-51v-10h-45l15 10c19 13 30 13 30 0zm-649 4-21-35v-69h88l4 25 5 25h-34l5 25c2 14 8 28 13 31s9 12 9 20v14h-48l-21-36zm284 26c-9-14 3-30 23-30l17-1-32-29-33-30v-40h54c30 0 61 3 70 6l16 6v38h-71l25 25c14 14 30 25 36 25h10v40H751l-6-10zM292 323l3-48h33l32-1v46h20v-50h30v50h20v-50h15c8 0 15 5 15 10 0 6-5 10-12 10-6 0-9 2-6 5s13 3 22-1l16-6-6-9-5-9h31v30h-14c-8 0-17 4-20 9l-6 9 22-5 23-5-14 10-13 9-62 2-63 1-11-25c-6-14-16-25-22-25h-10v90h-21l3-47zm295 40c-4-3-7-26-7-50v-43h26l-3 47c-3 49-6 57-16 46zm194-24c0-9 6-30 14-45l15-29v55h-9c-5 0-12 8-14 18l-5 17-1-16zm-270-36-1-33h40v60h-20l-1-27-1-28-8 30-8 30-1-32zm111-3v-35l5 18c2 9 2 25 0 35l-5 17v-35zm26 0c2-16 6-30 8-30s4 14 4 30v30h-17l5-30zm47 20-6-10-10 5-9 6 1-28v-28l9 20 9 20v-17l1-18h30v-40h20v39l-21 6-20 7 18 14 18 14-17-6-18-6v21l23 4 22 4-22 2-22 1-6-10zm135-20v-30h50v18l-20-5-20-5v42h9c5 0 11-6 14-12l4-13 8 7 7 7-7 10c-3 6-15 11-26 11h-19v-30zm65 20c3-5 10-10 16-10 5 0 9 5 9 10 0 6-7 10-16 10h-15l6-10zm35-4c0-8 4-17 9-20l9-6 5 20 5 20h-28v-14zm40-16v-30h20v60h-20v-30zm34 15c-8-20 2-45 18-44l13 1-12 5c-15 6-17 33-3 33 6 0 10 5 10 10 0 16-20 12-26-5zm47 1-11-13 6-16 6-16 29 1 29 1v19l-25-4-25-5v42l10-15c5-8 12-12 15-9 3 4-1 11-8 18l-14 11-12-14zm54 5-6-11 16-22 16-23-3 27c-5 32-13 44-23 29zm-425-81c0-5 5-10 10-10 6 0 10 5 10 10 0 6-4 10-10 10-5 0-10-4-10-10z"/></g><g fill="#f2421e" transform="matrix(.1 0 0 -.1 0 134)"><path d="M90 735v-15l-25-6-24-6-6-19c-4-10-11-19-16-19h-9v-32c0-18 4-38 8-44 11-16 48-34 71-34h21v40H80l-11 26-10 27 21 19 21 20 14-18 14-19 1-90v-90l21-13 21-13 14 12 14 11v23c0 13 4 25 9 27s20 28 34 58l26 55 1-80v-80l9-13 8-14 22 13 21 14v18c0 20 28 68 47 80l13 8v78l20 6c11 3 20 10 20 15 0 4 12 11 26 14l26 7-6 15c-3 9-6 20-6 25v9h-60v-15c0-8-4-15-10-15h-10v-49l-19-6-18-5-11-33-10-32-1 58-1 57h-20v40h-40v-11c0-6-9-22-19-35-11-14-27-49-37-77-9-29-20-56-25-61l-9-10v125l-10 20-11 19h-29v30H90v-15zm240-165c0-5-4-10-10-10-5 0-10 5-10 10 0 6 5 10 10 10 6 0 10-4 10-10zm380 168c0-6-7-19-16-29l-15-17-7-48-7-48-17 17c-18 19-38 22-38 8 0-5-9-12-19-16l-19-6-12-28-11-28 6-36 7-36 68 1h68l5 24 4 24h-37l6 28c4 15 11 29 16 30 4 2 8 11 8 21 0 9 9 36 20 59 11 22 20 53 20 67v25h-30v-12zm-67-165c3-5 1-18-4-30l-8-23h-51v10c0 13 37 50 49 50 6 0 12-3 14-7zm-141 80c2-9 8-18 15-20l12-4 11 20 11 21h-52l3-17zm728-11c0-10-6-30-12-45l-13-27h-27l5-12 4-13 24-1c13 0 25-4 27-10l2-9-35-3-35-3v-49h82l5 19c3 11 11 22 19 25l14 5v37l-20 14-20 14v76h-20v-18zm-290-21c0-5-9-13-20-16l-20-6v-15c0-8-4-14-10-14h-10v-60h20v-40h102l5 20 5 20h26l5-21 5-20 54 3 53 3 3 23 3 22-53 2-53 1 40 4 40 4 7 12 8 12-5 24c-7 27-28 51-45 51-6 0-25-13-42-30-16-16-34-30-39-30h-9v-50l-47 1-48 2 40 6 40 6 3 29 4 28-21 19c-22 20-41 25-41 10zm170-51v-10l-27 1h-28l20 9c27 12 35 12 35 0zm-649 4-21-35v-69h88l4 25 5 25h-34l5 25c2 14 8 28 13 31s9 12 9 20v14h-48l-21-36zm284 26c-9-14 3-30 23-30l17-1-32-29-33-30v-40h54c30 0 61 3 70 6l16 6v38h-71l25 25c14 14 30 25 36 25h10v40H751l-6-10zM292 323l3-48 19-3 20-4-18 18-18 17 5 34 6 33h-20l3-47zm288-8v-45h25l-2 32c-1 18-2 39-2 46-1 6-5 12-11 12h-10v-45zm200 24c0-9 7-30 15-45l15-29v16c0 9-7 30-15 45l-15 29v-16zm-435-30-7-21 11-11 11-11v54h20v-50h30v50h20v-50h15c8 0 15 5 15 10 0 6-5 10-10 10h-11l13 13 12 14 21-4 20-5-13 9-12 9-65 2-64 2-6-21zm185-3v-24l-12-5-13-5 23-1 22-1v60h-20v-24zm92-6v-35l5 18c2 9 2 25 0 35l-5 17v-35zm26 0c2-16 6-30 8-30s4 14 4 30v30h-17l5-30zm47 20-6-10-10 5-9 6 1-28v-28l9 20 9 20v-17l1-18h29l4-22 4-23 2 23 1 23-15 5-16 6 18 14 18 14-17-6-18-6v21l23 4 22 4-22 2-22 1-6-10zm135 0v-9l15 5 15 6v-11c0-6 4-11 10-11h9l-5 15-6 15h-38v-10zm60 6c0-2 7-6 15-10l15-5v9c0 6-7 10-15 10s-15-2-15-4zm40-10c0-8 4-17 9-20l9-6 5 20 5 20h-28v-14zm40-16v-30h20v60h-20v-30zm34 15c-8-20 2-45 18-44l13 1-12 5c-15 6-17 33-3 33 6 0 10 5 10 10 0 16-20 12-26-5zm47 1-11-13 6-17c7-18 34-22 34-5v10l-10-6-10-6v46l10-15c5-8 12-12 15-9 3 4-1 11-8 18l-14 11-12-14zm54 4-6-10 15-22 16-22v34h-10c-5 0-10 5-10 11v10l12-7 11-7-7 11c-9 15-13 15-21 2zm-637-27 12-5-5-9-6-9 15 6c9 3 16 10 16 15v9l-22-1-23-1 13-5zm362-15c0-5 9-8 19-8 11 0 22 3 24 8l5 7h-24c-13 0-24-3-24-7zm260 2c0-5 5-10 10-10 6 0 10 5 10 10 0 6-4 10-10 10-5 0-10-4-10-10zm-410-40c0-5 5-10 10-10 6 0 10 5 10 10 0 6-4 10-10 10-5 0-10-4-10-10z"/></g></g></svg>