<?xml version="1.0"?><svg version="1.2" baseProfile="tiny-ps" viewBox="0 0 300 300" xmlns="http://www.w3.org/2000/svg" xmlns:xlink="http://www.w3.org/1999/xlink"><title>SVG_WIDZEES</title><g><g fill="#fffefe" transform="matrix(.1 0 0 -.1 0 300)"><path d="M0 1500V0h3000v3000H0V1500z"/></g><g fill="#fde4e0" transform="matrix(.1 0 0 -.1 0 300)"><path d="M150 2224c-19-8-50-29-69-47l-33-32-24-50-24-50v-70l19-41 19-41 37-29 37-28h53l53-1 29 21 28 21 3 22 4 23-18 19-17 19h-87l-16 25-16 25 6 26 7 27 29 28 28 29h60l12-14 12-15 8-211 8-211 16-25 16-24h77l16 18c8 9 47 84 85 165 39 82 72 150 73 152 2 2 2-63 0-145l-3-148 21-21 21-21h67l20 23c11 12 80 124 153 250l132 227h29c34 0 81 17 91 33 4 7 8 24 8 39v27l-19 11-20 10H949l-19-10-19-10-40-68c-21-37-66-114-100-171l-61-105v331l-18 16-19 17h-74l-22-25c-12-13-53-94-92-179l-70-155-5 127-6 127-17 33-18 33-32 19-32 20h-60l-60-1-35-15zm1472-2-18-18-49-122-50-122-15 6c-8 4-27 11-42 17l-26 11-41-12-40-12-40-41-40-41-15-46c-9-25-16-61-16-79v-34l15-29c8-16 25-36 37-44l22-16h117l19 10 19 10 6-10 6-10h125l22 16 23 16 18-16 18-16h259l22 16 22 15v58l-11 6c-6 4-37 9-70 12l-61 6 71 71 71 71v64l-19 11-20 10h-198l-21-23c-26-28-28-50-6-71l15-16h64l-79-76-79-76-6 10c-3 6-23 13-44 17-20 4-37 10-37 14s38 101 85 216c47 114 85 215 85 224 0 10-5 22-12 29l-12 12h-56l-18-18zm-162-359c0-8-9-36-21-63l-21-49-15-6c-9-3-24-3-34 0l-19 6v71l33 33 34 34 21-6 22-5v-15zm-328 237-22-21v-56l18-16 19-17h60l16 18 17 19v50l-23 21-23 22h-40l-22-20zm1686-77c-9-10-32-51-52-90l-36-73v-23c0-29 18-47 47-47h23l21 21 21 21 9-13c5-8 8-25 7-39l-3-25-69-7-69-7-15-15-15-15-12 16-12 17-104 5-104 6 74 7 75 7 30 31 31 30v92l-32 28-32 29-34 6-34 7-44-12-44-12-42-44-42-43-12-43-11-43 5-39 6-39 19-26c10-14 30-32 43-38l24-13h214l13 14 14 14 19-14 19-14h158l31 15c18 9 41 28 52 43l20 27v92l-37 60-38 61v78l-12 12c-7 7-22 12-33 12h-22l-15-17zm-268-153v-10h-61l6 10c3 6 17 10 31 10h24v-10zm-425 105-40-14-37-39-37-40-11-43-12-44 5-39 6-39 19-26c10-14 30-32 43-38l24-13h210l11 8c6 4 16 17 23 30l12 22-10 19-10 18-32 7c-17 3-66 7-108 7l-76 2 75 8 75 9 29 29 29 30v91l-19 21c-23 26-74 49-106 49-13-1-41-7-63-15zm80-105-6-10h-60l6 10 6 10h60l-6-10zm-1107 87c-22-25-108-230-108-258v-18l26-20 27-21h143l22 20c25 23 27 33 12 61l-11 19-39 6-39 6 21 52c11 28 27 70 36 93l16 42-19 21-18 20h-49l-20-23zm-432-530-25-25-7-36c-3-20-4-64-2-96l4-60 21-28 20-27 26-3 27-3 23 25 23 25 12-20 12-19h28c37 0 51 11 62 46l8 29 1-37 1-38 106 1 105 1 6 14 5 15 18-16 18-16 83 1c46 1 143 1 215 1l131-1-5-25-4-25 26-10 26-10 24 10c14 5 30 18 36 30l11 20-11 20-10 20-33 9-32 9 22 1 23 1 16 25 16 25-4 25-5 25h8c5 0 9 7 9 15v15h-87l-16-18-17-19v-29c0-17 5-35 10-40l11-11-7-16c-3-9-10-17-15-17h-9v139l-17 5c-10 2-38 5-63 5-25-1-62 0-82 0l-38 1v61l-22-3-23-3-6-30-7-30-1 58-1 57h-55l1-132 1-133-6 75-6 75-26 3-26 3 5-70 5-71h-23v140h-50v-31l-16 15c-21 21-46 20-77-4l-25-20-5 20-5 19-53-2-54-2 2-40 1-40-5 28-4 27-25 16-24 16-23-6-24-6-11-25c-7-14-12-37-12-50v-25h-29l-6-20-6-20h-27l-6 23c-3 12-6 54-6 92 0 110 17 147 39 84l11-31 12 4 13 5v78l-37 3-38 3-24-24zm174-178v-60l-10 6-10 6v39c0 37 8 70 16 70 2 0 4-27 4-61zm260 31h18l5 13 5 12 1-37 1-36-30 28c-16 15-29 34-29 42l1 13 5-17 4-18h19zm217-67-4-38v140l4-32c2-18 2-50 0-70zm83 37v-60h-30v120h30v-60zm57 13-5-18v70l5-17c2-10 2-26 0-35zm180-5-4-23v40l-1 40 5-17c2-10 2-28 0-40zm-680-40-4-33v120l4-27c2-15 2-42 0-60zm560-10-4-33v130l4-32c2-18 2-48 0-65zm-430-15-7-7-14 19-13 18-17-6-16-6v57l37-34 37-34-7-7zm370 0-5-18v60l5-12c2-7 2-21 0-30zm193-53c0-5-4-12-10-15-5-3-10-4-10-1 0 2-3 12-6 20l-6 16 16-6c9-3 16-10 16-14zm136 288-16-22v-64l40-53 40-53v-23c0-12-5-25-10-28l-11-7-14 12c-8 6-15 21-17 32-2 12-9 23-15 26l-13 4v-90l30-7 30-6 20 6 20 6 13 26 14 25 16-26 17-26h59l12 21 11 21-12 12-11 11-13-17-13-18-6 7c-4 3-7 14-7 24v18l28 3 27 3 3 26 3 26-19 24-20 24-28-10-29-10-9-31-9-31-34 46c-18 25-38 56-45 69l-11 23 10 10 11 11 17-31 16-32 9 6 10 6v67l-31 6c-45 9-46 8-63-16zm171-150-5-13v50l5-12c2-7 2-19 0-25zm-550 156c-10-10-9-42 2-48 5-4 17-3 26 0l16 7-3 21-3 21-15 3c-9 1-19 0-23-4zm827-8c-3-9-3-23 0-32l6-15 17 3 18 3v50l-18 3-17 3-6-15zm-219-177v-89h61l-4 65-4 65h10c6 0 17 3 25 6l15 5 7-33c4-18 11-50 16-70l10-38h27l18 75 18 75h18l-4-75-3-75h67l-6 16c-3 9-6 49-6 90v74l-132-1-133-2v-88zm164 39v-33l-10 23c-5 13-7 28-3 33 10 16 14 9 13-23zm131 30-20-22v-92l16-22 15-22h58l12 21 11 21 14-21 15-21h55l12 12 12 12 12-12 12-12h62l12 12 12 12v53l-21 19-20 18 20 8c25 9 26 21 5 42-18 19-38 20-65 6l-19-11v-30l-23 27-24 27-25-6-25-7-11-22-11-23v17l-1 17-19 11c-30 15-48 12-71-12zm147-40-5-13v50l5-12c2-7 2-19 0-25zm110 10-5-13-1 19c-1 11 2 17 5 13 3-3 4-12 1-19zm-186-13 19 6v-51h-28l-5-21-6-21-10 7-11 6v52l1 52 10-18 10-18 20 6zm178-52 26-21-8-8-8-8-9 14-9 15-35 1-35 1-5-14-6-14-10 6c-5 3-10 15-10 26v19h60v23l1 22 11-20c6-11 23-30 37-42z"/></g><g fill="#fac3ba" transform="matrix(.1 0 0 -.1 0 300)"><path d="M154 2221c-50-23-112-83-130-127l-14-33v-116l24-36 25-36 34-17 35-16h83l29 15 29 15 6 20 6 19-10 19-10 19-52 5-52 5-14 19c-29 39-5 107 49 139l29 17 24-6 23-6 10-32 10-33 7-195 6-195 21-22 21-23h26c14 0 34 7 44 14l18 14 74 157c41 87 77 160 81 164l7 6-7-150-7-151 21-27 21-27h59l19 19c19 19 88 132 221 364l73 127h83l22 16 23 16-3 26-3 27-25 13-25 13-62-4-62-3-19-18c-11-9-60-86-108-169-48-84-94-161-101-172l-13-19 7 170 6 171-21 21-22 22h-56l-23-16-23-17-30-66c-16-36-50-111-76-166l-47-100-6 125-6 125-21 41-21 41-35 17-34 16h-97l-41-19zm1469-3-21-23-47-117-47-118h-13c-8 0-17 5-20 10l-6 10h-94l-32-20c-18-11-46-38-62-60l-30-41-10-48-10-48 9-34c12-42 18-51 50-72l24-17h95l26 12 26 11 11-11 12-12h97l22 11c12 7 25 16 28 22l7 9 21-21 21-21h239l26 12 25 11 6 24 6 23-12 15-12 15h-64c-35 0-64 1-64 3s34 37 75 78l75 75v53l-22 15-22 16h-182l-22-16-23-16 3-31 3-32 42-5 42-5-79-81-80-81-11 13-11 14h-39c-22 0-39 2-39 4 0 3 41 105 90 227 50 123 90 226 90 230s-7 15-16 23l-15 16h-46l-20-22zm-166-358 3-25-23-45-22-45-26-3-26-3-13 16-13 16 12 39 11 39 27 21 27 21 20-3 21-3 2-25zm-332 226-17-26 6-25 7-26 24-11 24-11 24 6 24 7 11 26 12 26-12 26-13 27-37 3-37 3-16-25zm1712-53-18-5-45-90-46-91 6-23 6-24 27-6 26-7 23 26c13 15 25 27 28 27 2 0 9-14 15-30l10-31-19-19-20-20h-110l-19-19-18-18-12 18-11 19h-84c-85 0-116 5-116 20v8l76 4 76 3 24 28 24 28v40c0 51-13 75-50 94l-29 15h-96l-39-23-38-24-28-41-27-41-7-41-6-41 10-39 11-39 32-23 32-23 103-4 104-3 27 20 27 20 12-19 12-19h155l34 18c19 9 43 29 54 44l20 27-1 46v47l-38 56-38 57v39l-1 39-20 12-20 12-18-4zm-280-160 4-12-24-7c-14-3-33-4-43-2l-18 3 18 18 18 18 21-3c11-2 22-8 24-15zm-1451 85-26-23-44-114-44-114 7-21 8-21 24-12 24-13h121l22 16 22 15v57l-16 6c-9 3-29 6-45 6h-29v10c0 5 14 43 30 85 17 42 30 86 30 100v24l-19 11c-28 14-37 13-65-12zm987-4-43-25-26-45-26-45-2-53-1-53 14-26c8-15 26-35 40-44l26-17 103-4 102-4 25 16 25 16v23c0 13-5 28-12 35l-12 12h-82c-83 0-114 5-114 20v8l76 4 76 3 24 28 24 28v40c0 51-13 75-50 94l-29 15h-96l-42-26zm114-81 4-12-36-7-36-6-7 7-7 7 20 14 20 15 19-3c11-2 21-8 23-15zM682 1443c-20-8-41-57-48-115l-6-53 11-42 12-43 22-20 22-21 19 3 20 3 23 34 23 34v-16c0-8 7-23 16-31l15-16h48l15 22 16 22v38c0 20-5 48-12 62l-11 26-19 6-19 6-24-16-23-15-7-41-7-40h-28v-14c0-7-6-19-14-25l-13-11-13 15-12 14v95c0 51 3 99 6 105 12 18 26 13 36-14 5-14 14-25 20-25h10v76l-32 1c-18 0-39-2-46-4zm162-165 6-32-6-33-6-33-9 6-9 5v119h9c5 0 11-14 15-32zm415 165c0-4 0-65 1-135l1-128h-21v161l-22-3-23-3 3-72 4-73h-22v141l-16 6-15 6-8-9-7-9 5-80 6-80 83-3 82-3 2 83 1 83 6-70c3-38 9-75 13-81l8-12 85-1 85-1v140h23l-5-70-5-69 66-3 66-3v-30l-17-3-18-3v31h-14c-8 0-18-5-21-10l-7-11 12-14 12-15h66l11 14 12 15-3 27-3 27-35 12-35 12 27 6 26 7 11 30 10 31-5 14-6 15h22v29l-41-1h-41l-19-19-19-19v-21c0-11 5-29 11-40l10-20-6-19c-4-11-11-20-16-20h-9v138l-12 9-13 10-45-1-45-1 5-15c2-8 5-40 5-70v-55l-10-2-10-3-1 28c-1 15-2 49-3 75l-1 48-22-1c-13-1-28-2-35-1l-12 1-3 28-3 27h-29l-10-35-10-35-6 60-5 60-22 3-23 3-1-8zm141-198v-64l-15 5-15 6v118h30v-65zm237 13-4-23v40l-1 40 5-17c2-10 2-28 0-40zm154 171-21-23v-64l40-48 41-49-3-30-3-30-18-3-17-4-6 31-6 31h-28v-78l37-7 38-7 22 27 23 26v30c0 36-13 62-51 107l-29 33v49h30l6-25 6-25h28v70h-12c-7 0-23 3-34 6l-22 6-21-23zm-391-19v-21l23 3 22 3v30l-22 3-23 3v-21zm835 10-7-12 10-10 11-11 16 7 17 6-4 13c-3 6-12 13-20 15l-16 3-7-11zM905 1250v-88l55-1h55l-3 77-4 77-9 9c-5 6-28 11-51 12l-43 3v-89zm65-10v-60h-20v120h20v-60zm78 88c-8-7-18-21-21-31l-7-17 37-41 36-40-11-11-11-11-7 16c-7 19-29 23-39 7l-7-11 12-14 12-15h57l15 22c23 32 20 43-21 82l-37 35 7 7 7 8 14-19 13-18 11 7c18 11 14 34-7 46-25 13-34 13-53-2zm873-14-21-27v-83l16-22 16-23 25 3 26 3 11 17 10 17-7 7-7 8-12-12c-18-18-25-15-30 12l-5 25 14 5c8 4 23 6 34 6h19v9c0 19-21 66-33 73-21 13-35 9-56-18zm35-41c-11-11-17 4-9 23l7 19 4-18c2-10 1-21-2-24zm64 62s-2-39-3-88l-2-87h56l-7 35-6 35 6 35 7 36 10-7 10-6 13 11 14 11 17-75 18-76 11 4 11 4 19 71 19 72h19l-4-75-3-75h60l-3 78c-2 42-5 82-7 88l-4 12-125-1c-69-1-126-1-126-2zm161-28c-1-4-1-19-1-34v-28l-10 15c-5 8-10 26-10 38v24l11-4c6-2 10-7 10-11zm134 8-25-24v-35c0-19 4-46 10-60l9-25 27-7 27-7 24 29 23 29v-12c0-18 29-43 50-43 10 0 26 7 34 16l16 15 16-15 15-16h48l15 16c9 8 16 24 16 36v20l-35 30-34 31 5 9 6 9 13-18 14-18 12 12 12 12-6 16c-4 8-13 18-22 21l-15 6-25-16-25-16v-44l32-33 32-33-12-12-12-12v33l-37-1-38-1-7-11-7-11-12 12-11 11 4 18 3 19 28 3 27 3v49l-20 20c-25 25-42 25-64 1l-18-19-5-41-6-41-8 5-8 6-11-21-11-21-10 6-9 6v109h21l-6-10-6-10 16-6 16-7 11 11 12 12-19 20c-24 26-41 25-70-5zm155-25v-20h-20v40h20v-20z"/></g><g fill="#f89d8c" transform="matrix(.1 0 0 -.1 0 300)"><path d="m155 2217-50-24-36-40-37-40-12-38-12-37 4-50 5-49 20-27c10-14 32-35 47-46l27-21h117l21 19 21 19v55l-16 6c-9 3-30 6-48 6h-32l-22 16-22 15v81l35 35 34 34 33-3 33-3 12-26 13-26 6-204 7-203 23-23 23-23h40l25 23 24 22 66 144c37 79 71 151 76 160l10 16-2-155-2-155 12-22 13-23 25-6 26-7 26 20 27 20 136 234 136 234 39 3c48 3 82 20 89 43l6 18-11 21-11 20H933l-15-17c-9-10-57-90-108-178s-97-164-103-170l-10-10 7 168 6 167-24 25-25 25h-23c-13 0-33-6-44-14l-21-15-79-172-79-173-8 129-7 129-18 35c-9 19-29 44-44 54l-27 20-53 4-53 4-50-24zm1478 8-21-14-52-128c-29-71-54-130-56-132-1-1-13 4-26 13l-22 16h-71l-40-23-39-22-30-49-30-48-4-64-4-63 29-30 30-30 39-7 39-7 40 14 40 15 25-14 25-13 50 5 50 5 17 21c19 24 28 25 28 5v-14l39-12 38-11 108 4 107 4 19 23c23 28 23 35 3 55l-15 16h-133l82 84 82 84v14c0 8-6 22-14 33l-13 18-80 5-80 4-37-12-36-12-6-24c-3-13-4-31 0-39l5-15h81v-8c0-4-27-32-61-61-34-30-69-67-78-82l-17-28-17 19-17 20h-70v9c0 4 38 102 85 217s85 218 85 230c0 41-38 56-77 29zm-174-348 11-14-24-59-24-59h-77l-3 18c-6 30 6 63 34 96l26 31h46l11-13zm-323 220-18-14v-54l17-19 18-20h44l16 18 17 19v52l-16 15-15 16h-23c-12 0-30-6-40-13zm1681-84c-18-21-87-162-87-180 0-6 9-18 21-26l20-15 20 5c11 3 26 14 32 24 16 25 22 24 35-6 16-34 15-40-4-59l-15-16h-105l-22-16-22-15v-49l28-11 27-11 67 5 66 6 31 16 31 15 15 30 15 29v72l-15 29c-8 16-27 46-40 66l-25 37 2 32c1 17-2 36-6 43l-7 12h-46l-16-17zm-1697-46-25-12-47-110c-63-148-63-176 3-195 43-13 75-13 121 1l38 10 6 25 6 24-12 15-12 15h-80l7 18c4 9 21 51 38 94l30 76-6 15c-3 9-14 20-25 26l-18 10-24-12zm995-2c-43-24-74-55-96-97l-19-37v-111l28-30 27-31 40-9c54-13 141-12 187 1l38 10 6 25 6 24-12 15-12 15h-186l-12 15-12 15h124l33 15 32 16 12 25c6 14 11 38 11 54v30l-28 31-29 32-54 4-54 4-30-16zm90-95v-15l-37-3-38-3v10c0 15 32 31 55 28l20-2v-15zm265 99c-36-15-79-58-101-101l-19-37v-111l28-30 27-31 40-9c54-13 141-12 187 1l38 10 6 25 6 24-12 15-12 15h-186l-12 15-12 15h124l33 15 32 16 12 25c6 14 11 38 11 54v30l-28 31-29 32-54 3-54 4-25-11zm85-99v-15l-37-3-38-3v10c0 15 32 31 55 28l20-2v-15zM664 1419l-19-21v-196l19-21 19-21h53l12 12c7 7 12 22 12 35v23h-9c-5 0-12-11-15-25-13-51-44-20-53 53l-6 50 7 56 7 56h29l12-25c6-14 15-25 20-25h8v70h-77l-19-21zm594-109 3-130h-21v150h-45l3-70 4-70h-22v140h-46l4-72c2-40 5-78 7-84l3-10 82-1 82-1-6 21c-3 12-6 75-6 140v117h-45l3-130zm528 108c-9-12-16-31-16-41 0-23 24-70 45-87 9-7 23-26 31-42l15-29-6-20-7-20-21 3-21 3-6 23c-3 13-9 23-15 23l-10-1v-65l42-3 42-3 17 26 17 25-6 36-6 36-28 35c-15 19-33 44-40 55l-11 21 5 13c3 8 12 14 19 14h14l10-25c13-35 20-31 20 10v35h-69l-15-22zm-381 2c-8-14 3-30 21-30h14v40h-14c-8 0-18-4-21-10zm830 0-7-12 10-10 11-11 16 7 17 6-4 13c-3 6-12 13-20 15l-16 3-7-11zm-907-62c-2-18-2-69 1-113l6-80 55-2 56-3-2 48c-1 26-3 64-3 84l-1 37-37 3-38 3-3 28-3 27h-26l-5-32zm72-108v-71l-20 11-20 11v107l13 5c6 3 15 6 20 6l7 1v-70zm238 83-37-4-5-17c-2-9-4-47-3-84l1-67 30-3 29-3 5-12 4-13-17-6-16-7-13 18-13 18-12-7-11-7 10-20 11-19h58l15 16c31 31 13 74-31 74h-23v30h18c10 0 23 5 30 12l12 12v65l10 6 10 6-5 10c-4 5-9 8-13 7s-24-3-44-5zm7-73c-4-11-11-20-16-20h-9v28c0 16 3 32 7 36l7 7 9-16 8-15-6-20zm-855 51c-5-11-10-40-10-64v-45l18-22 19-23 27 7 27 7 10 27 11 27-5 38c-3 21-11 44-17 52l-12 15h-57l-11-19zm55-66v-58l-12-4-13-5v134l13-4 12-5v-58zm60 0v-85h45v150h20v-151l22 3 21 3-2 75c-1 41-5 78-7 82-3 4-26 8-52 8h-47v-85zm137 73c-7-7-12-22-12-34v-22l31-26 31-26-6-15c-7-19-26-19-26 0v15h-14c-8 0-17-4-21-9l-5-9 16-16c18-19 37-20 65-6l19 11v58l-30 23c-16 12-30 28-30 35 0 18 10 16 26-4l13-18 12 12 12 12-6 15-6 16h-57l-12-12zm423-73v-85h41v72l-1 71 14 5 13 4-4-76-3-76h45v69c0 38-3 76-6 85l-6 16h-93v-85zm456 71c-7-8-15-30-18-50l-6-36 13-30 13-30 23-6 24-6 15 12c17 14 20 40 5 40-5 0-10-4-10-10 0-5-6-10-14-10-14 0-26 21-26 46v14h60v56l-12 12c-7 7-22 12-34 12h-22l-11-14zm49-26v-20h-30v13c0 8 3 17 7 20 12 13 23 7 23-13zm50-47v-83h50l-6 44c-4 25-4 55-1 68l6 23 25 11 24 11 19-74 18-74h20l19 76 18 76 12-4 11-4v-76l-1-77h48l-6 23c-3 12-6 50-6 85v62h-90l2-17c1-10 0-31-1-48l-2-30-10 18c-6 10-11 31-11 47l-1 29-69-2-68-1v-83zm284 51-16-38 6-30c11-55 55-83 84-54 7 7 12 20 12 30v18h-10c-5 0-10-7-10-15v-15h-29l-7 35-6 35 6 25c7 27 26 34 26 10v-15h31l-3 23-3 22-33 3-32 3-16-37zm115 14-12-23v-85l18-20 19-21 19 3c11 2 25 11 31 20l10 17-8 8-9 8-4-12c-3-7-11-13-19-13h-14v60h62l-7 27c-4 16-11 34-17 40l-10 13h-47l-12-22zm51-18v-20h-20v40h20v-20zm61 26-13-16 6-25 6-25 25-16 25-16v-38h-30v30h-30v-40l24-6 24-6 20 11c12 6 24 20 27 32l7 21-36 37c-39 40-44 51-21 51h15v-32l13 5 12 4v38l-31 3-31 3-12-15z"/></g><g fill="#f56d53" transform="matrix(.1 0 0 -.1 0 300)"><path d="m180 2225-45-14-39-32-39-33-23-50-24-51v-70l19-41 19-41 33-23 33-24 51-1h51l27 18 27 17v49l-19 11c-11 5-35 10-55 10h-35l-21 27-22 28 6 30 6 29 32 33 32 33h63l18-20 19-21 6-207 5-207 13-22 13-23h79l14 23c9 12 47 92 87 177 39 85 75 159 79 164l9 9-6-170-6-169 17-17 17-17h68l18 24c10 13 77 125 148 249l130 226 40 1h41l22 16 22 15v23c0 12-5 27-12 34l-12 12H944l-20-18c-11-10-64-96-119-191l-100-173-5 183-5 184-27 12-26 13-26-10-26-10-20-32c-11-18-50-99-87-180s-70-145-73-142c-2 3-7 65-11 137l-5 132-17 32-17 33-29 15c-16 8-46 17-67 19l-39 5-45-14zm1457-5-25-20-46-110c-25-60-46-114-46-119s-4-12-9-16l-10-5-34 16-35 17-38-8-39-7-47-48-47-49-10-38c-6-21-11-53-11-71v-33l15-29c8-16 24-34 34-40l20-10h117l11 11 11 11 20-11 21-11h102l20 10 19 11v47l-13 10c-7 6-29 12-49 14l-36 3 89 219c49 120 89 227 89 237v18l-19 11c-25 13-24 13-54-10zm-169-352c2-9-8-41-22-72l-25-57-38 3-38 3-3 29-4 28 13 30 12 30 30 18 30 18 21-7 21-8 3-15zm-331 224-17-19v-51l15-12c8-7 26-12 40-12s32 5 40 12l15 12v55l-18 16c-10 10-28 17-39 17h-20l-16-18zm1685-75c-6-6-29-50-51-96l-40-84 10-18 10-19h59l12 25c14 32 22 31 36 0 15-33 15-58 0-73l-12-12h-101l-25-13-25-13-3-20-3-21 15-12 15-13 92 3 91 4 35 39 35 38-4 49-5 48-36 53-37 53v83l-16 6c-24 9-41 7-52-7zm-712-59-45-23-29-42-30-43-3-57-4-58 20-33 21-32 26-10 25-10h206l17 19 18 20-7 20-6 21-22 5c-12 3-60 6-106 7l-84 3-4 11-4 11 78 6 78 6 28 31 27 30v28c0 15-6 38-13 52l-12 25-35 17-35 18h-61l-44-22zm98-85-3-18-45-3-44-3 18 20 19 21h58l-3-17zm252 85-45-23-29-42-30-43-3-57-4-58 20-33 21-32 26-10 25-10h206l17 19 18 20-7 20-6 21-22 5c-12 3-60 6-106 7l-84 3-4 11-4 11 78 6 78 6 28 31 27 30v28c0 15-6 38-13 52l-12 25-35 17-35 18h-61l-44-22zm98-85-3-18-45-3-44-3 18 20 19 21h58l-3-17zm-1450 85-16-13-46-113c-25-62-46-121-46-132v-19l22-15 22-16h143l16 18c21 23 21 36 1 56l-15 16h-35c-19 0-34 2-34 5s16 46 37 96l36 92-10 16-10 16-24 3-24 3-17-13zm619-6c-20-22-22-43-5-60l12-12h81l-83-83-82-82v-21c0-11 5-25 12-32l12-12h257l20 10 19 11v22c0 13-5 28-12 35l-12 12h-131l78 78 77 77v26c0 14-5 30-12 37l-12 12h-203l-16-18zM663 1413l-18-27-3-76-3-75 18-35 18-35 26-3 26-3 17 16 16 16v22l-1 22-15-27-15-28h-29l-10 26-10 25v148l10 25c13 34 28 33 44-4l12-30 7 7c4 3 7 19 7 35v28h-80l-17-27zm602-113v-140h47l-6 16c-3 9-6 72-6 140v124h-35v-140zm527 128-12-12v-77l40-50 40-51v-46l-15-12-14-12-12 7c-6 4-17 21-25 39l-13 31-1-40v-41l23-2c12-1 32 0 43 3l21 5 13 30 12 29-10 29c-5 16-26 50-46 76-39 51-43 68-23 84l13 11 10-7c5-4 15-18 21-32l12-25v35l1 36-33 2-33 2-12-12zm-387-7c-8-15 3-31 21-31h15l-3 17c-4 20-24 28-33 14zm835-11v-20h30v40h-30v-20zm-912-52c-2-18-2-68 0-110l3-76 16-6 15-6 16 9 17 10-17 6-18 7v117l18 10 17 10-17 1h-18v60h-29l-3-32zm317-25c-16-3-36-9-42-15l-13-10v-67l10-6 9-6-9-25c-6-14-10-30-10-35v-9h70v-40h-38l-6 15c-3 8-10 15-16 15h-10v-40l25-6 25-6 25 16 25 16v39l-19 11c-11 5-29 10-41 10h-22l4 13c3 6 14 13 26 15l22 3 11 21 11 20-6 29-5 29h9c6 0 10 5 10 10 0 6-3 9-7 9-5-1-21-4-38-6zm3-64-3-34-10 2c-12 3-19 49-10 71l6 15 10-10 10-10-3-34zm-852 39-16-22v-86l20-20c25-25 32-25 60-2l22 18v45l1 45-12 22-12 22h-48l-15-22zm52-63-3-58-12-4-12-4-6 43-6 43 11 29 11 29 10-10 10-10-3-58zm59 2 1-82 19-3 19-3v72l-1 72 13 4 12 5v-152h40v73c0 39-4 77-8 83l-7 11-45 1h-45l2-81zm133 68-12-15 6-24 6-24 25-16 25-16v-40h-30v30h-30v-29l21-11 20-11 25 16 24 15v45l-32 26-31 26 7 19 7 19 14-19 14-18 11 7 11 7-12 14-11 14h-46l-12-15zm100-59v-75l12-8c7-4 30-8 50-9l38-2v168h-40v-140h-30v140h-30v-74zm265-11v-85h47l-6 16c-3 9-6 47-6 85v69h-35v-85zm62 2 2-82h34l1 69 1 69 13 4 12 5v-152h37l-4 73c-3 39-6 77-8 83l-3 11h-44l-43 1 2-81zm453 64-10-20v-100l22-15c12-9 26-16 30-16 10 0 38 30 38 42v10l-15-12-15-12-15 6-15 5v51h60v21c0 11-5 29-10 40l-11 19h-48l-11-19zm50-21c0-10-5-22-10-25l-10-6-6 15c-3 9-3 23 0 32l6 15 10-6c5-3 10-15 10-25zm55-45v-85h41l-4 66-4 65 21 6 21 5v28h-13c-7 0-18-5-25-12l-12-12v12c0 7-6 12-12 12h-13v-85zm101 43c7-24 18-63 25-88l11-44 8 14c4 8 13 40 20 70s17 63 22 73l9 17h-42l6-10c3-5 3-26-1-46l-7-35-9 9c-5 5-10 26-11 46l-2 36h-42l13-42zm109-43v-85h47l-6 16c-3 9-6 47-6 85v69h-35v-85zm82 67-17-19v-102l22-15c12-9 26-16 30-16 13 0 38 31 38 48v16l-14-19-13-18-17 6-16 6v99l15 12 15 12v-42h31l-3 23-3 22-26 3-25 3-17-19zm110 0-17-19v-42c0-48 12-76 35-85l16-6 20 10 19 11v29l-20-12-21-13-9 15c-5 8-10 23-10 33v17h60v56l-12 12c-17 17-42 15-61-6zm43-22c0-10-4-21-9-25l-10-5-6 10-6 10 6 20 6 20 10-5c5-4 9-15 9-25zm58 15-11-26 37-38 38-39-6-11c-4-6-14-11-22-11h-14v32l-12-4c-6-2-14-10-16-16l-4-12 25-11 24-11 22 11 21 12v58l-31 24-32 25 7 18 7 19 13-17c7-10 19-18 25-18h12l-3 18-3 17-33 3-32 3-12-26z"/></g><g fill="#f24421" transform="matrix(.1 0 0 -.1 0 300)"><path d="m155 2212-41-19-41-47-42-47-9-45-10-44 10-44 9-45 40-35 39-36h109l27 23 27 23-7 21-7 21-51 4-52 5-18 23-18 22v53l20 33 20 33 36 15 35 15 26-13 27-13 6-25c4-14 10-112 13-219l7-195 15-23 15-23h57l16 18c9 9 51 92 93 182 42 91 81 170 87 175l9 10-6-168-7-169 16-24 15-24h58l24 28c12 15 81 127 151 249l128 221 49 6 49 7 16 15c8 8 15 24 15 35v19l-26 10c-14 6-46 10-72 10h-47l-24-13-24-12-102-174c-56-96-106-176-112-178l-10-4 5 171 5 170-18 20-18 20h-58l-22-24-22-25-75-165c-41-91-78-166-82-166h-8v226l-15 50-15 50-25 24-26 24-62 3-62 4-40-19zm1472 1c-8-10-37-72-63-138s-51-124-55-129l-9-10-18 17-19 17h-88l-37-25-37-25-25-43c-13-23-27-59-30-80l-7-38 11-34 11-35 26-20 26-20h103l20 14 20 14 19-14 19-14h92l22 16 23 16-3 21-3 22-49 3-48 3 5 17c2 9 43 115 92 235l87 217-12 15-12 15h-45l-16-17zm-169-325c17-17 15-38-9-96l-21-51-20-7c-11-3-30-3-43 0l-23 6-6 16-6 16 10 38 10 39 31 25c33 28 58 33 77 14zm-305 211-22-8-7-26-6-26 17-19 18-20h44l18 20 19 21-10 26-9 26-20 7-20 7-22-8zm1670-91c-22-26-83-149-83-170 0-20 21-38 42-38h18l19 31 19 31 16-23 16-23v-66l-26-10c-14-6-47-10-74-10h-49l-15-16c-21-21-20-41 3-54l20-10h132l34 14 35 15 20 33 21 33-4 37-5 37-36 58-36 58v71l-12 12c-18 18-32 15-55-10zm-1711-55-21-18-39-100c-22-55-43-109-46-121l-6-20 14-19 14-19 63-4 64-4 28 11 28 11-3 28-3 27-42 3-43 3v14c0 8 14 48 30 90 17 42 30 86 30 99v24l-16 6c-24 9-30 8-52-11zm618-3c-22-22-24-29-11-49l10-15h40l41-1v-8c0-4-36-42-80-85l-80-77v-17c0-9 7-24 16-32l15-16h245l22 16 23 16-3 21-3 22-65 3c-36 1-72 5-80 8l-15 5 83 78 82 78v52l-19 11-20 10h-181l-20-20zm385 8c-58-32-97-86-109-150l-7-38 11-39 10-39 28-18 27-18 95-4 95-4 28 11 28 11-3 28-3 27-95 5c-99 5-120 11-120 36v14h148l21 18 21 17 8 30 9 30-8 30-8 30-30 18-29 17h-49l-48-1-20-11zm95-78 11-20-26-10c-35-13-62-13-71 2l-7 11 23 19c12 10 31 18 41 18h18l11-20zm245 71c-17-10-43-32-58-50l-26-32-11-37c-13-47-13-71 1-110l10-31 27-17 27-18 95-4 95-4 28 11 28 11-3 28-3 27-95 5c-99 5-120 11-120 36v14h151l24 25 25 24v43c0 48-5 57-40 81l-24 17h-101l-30-19zm106-67 13-16-19-14-19-14h-27c-15 0-30 4-34 10l-6 9 21 21 20 20h38l13-16zM672 1415l-20-25-6-45-7-45 7-45 6-45 20-25 19-25h39l16 25c9 14 14 28 11 31s-8-4-12-15l-6-21h-47l-6 16c-3 9-6 60-6 114v98l15 12 14 12 11-7c6-4 15-17 20-29l9-21v30l1 30-30 2-29 2-19-24zm593-110v-135h40l-5 132-5 133-15 3-15 3v-136zm532 117-17-19v-62l41-47 41-47-4-38-3-38 12 11 13 10v83l-41 49-40 49 3 26 3 26 17 3 17 3 15-28 15-28 1 26v27l-22 6c-32 8-33 8-51-12zm-382-2-7-12 10-10 10-10 7 12 7 12-10 10-10 10-7-12zm830 0-7-12 10-10 10-10 7 12 7 12-10 10-10 10-7-12zm-910-41c-8-12-7-187 1-200 3-5 15-9 27-8l22 1-12 5-13 5v136l13 5 12 5-12 1-13 1v60h-9c-6 0-13-5-16-11zm-530-63-19-14v-100l13-16 13-16h47l11 19c5 11 10 37 10 58v39l-16 22c-18 25-33 28-59 8zm47-32 8-29-6-38-6-38-16 3-17 3-3 54c-2 29-1 60 2 68l6 15 12-4c7-3 16-18 20-34zm63-35v-79h30v135l18 3 19 4-4-71-3-71h30l-5 77-5 77-40 2-40 2v-79zm131 59-15-21 9-16c4-9 20-26 35-39l26-23-4-12c-2-7-13-13-26-15l-21-3 2 8c2 4-1 9-7 11-5 1-10-4-10-10v-13l28-3 28-3 15 12c8 6 14 19 14 29v17l-36 32-35 33 4 11c2 7 11 13 20 15l17 3v-15c0-9 5-16 10-16 16 0 11 27-6 34-25 10-32 7-48-16zm98 6c3-9 6-45 6-80v-64h44l-12 12-12 12v136h-32l6-16zm63-61 2-78 13-3 13-3-3 81-4 80h-23l2-77zm198-3v-80h33l-3 43c-2 23-4 59-4 80l-1 37h-25v-80zm65-1v-79h30v141l18-3 17-3v-135h30l-5 77-5 77-42 2-43 2v-79zm143 72c-6-3-13-16-17-27l-7-21 10-27 11-26h19c10 0 24 7 31 16l13 15v32c0 18 4 34 8 38 5 3-6 5-25 6-18 1-38-2-43-6zm32-46v-38l-12-4-13-5v94l13-4 12-5v-38zm281 33-16-22v-82l13-18 13-18 24 4 23 3 4 15 5 15-10-14-10-14-16 6-16 6v61h60v18c0 24-28 62-45 62-8 0-21-10-29-22zm44-18v-30h-30v60h30v-30zm55-40v-80h30l-1 63c-1 34-2 70-3 80l-1 17h-25v-80zm47 67-11-13 20-1 19-2v15c0 17-14 18-28 1zm48 11c1-13 40-151 43-154s8 7 11 22l7 27-12 7-11 8-2 46-1 46h-17c-10 0-18-1-18-2zm65-8c3-5 10-10 16-10 5 0 9 5 9 10 0 6-7 10-16 10h-15l6-10zm50-70v-80h40l-3 80-4 80h-33v-80zm85 60-20-20v-35c0-19 5-46 12-60l11-25h46l11 21c7 11 9 23 7 26-3 2-8-5-12-16l-6-21h-29l-5 23c-4 13-5 43-3 68l3 44 19 3 19 4-6-16-6-15 9-6 9-5 6 10 7 11-12 14c-17 20-36 19-60-5zm117 7-17-12-7-37-6-38 13-30 12-30h56l6 15 5 15-20-13-20-12-9 15c-5 8-10 25-10 38v22h60v49l-16 15c-19 19-25 20-47 3zm38-28v-24l-17-3-18-3v24c0 27 9 39 24 34l11-4v-24zm93 35c6-3 12-12 12-20s5-14 11-14h10l-3 17-3 18-20 2-20 3 13-6zm-31-11c-4-3-7-17-7-29v-23l30-23 30-22v-36h-38l-6 16-6 15-9-6-10-6 6-14 5-15h54l12 12c7 7 12 20 12 30v18l-34 31-35 31 6 14c5 15 1 18-10 7zm-756-110-1-33h31l-9 18c-5 9-12 24-15 32l-5 15-1-32zm-185-19-5-14h57l12-15 12-14-7-11c-3-5-17-10-30-10h-23l-5 13-4 12-8-8-9-7 11-11 10-10 34 3 34 3 3 24 4 23-9 9c-5 5-23 13-40 18l-32 9-5-14z"/></g></g></svg>